<mxfile host="app.diagrams.net" modified="2020-12-11T05:34:46.405Z" agent="5.0 (Windows NT 6.1; Win64; x64) AppleWebKit/537.36 (KHTML, like Gecko) Chrome/87.0.4280.88 Safari/537.36" etag="QL2XsS5pQ6TODJwfVBRq" version="14.0.1" type="github">
  <diagram id="YZB0cHWHCt__Y0O9V4XH" name="Page-1">
    <mxGraphModel dx="2031" dy="1053" grid="1" gridSize="10" guides="1" tooltips="1" connect="1" arrows="1" fold="1" page="1" pageScale="1" pageWidth="1200" pageHeight="1920" math="0" shadow="0">
      <root>
        <mxCell id="0" />
        <mxCell id="1" parent="0" />
        <mxCell id="2vMNFDzbin6bQPBUR3g--3" value="管钉" style="ellipse;shape=cloud;whiteSpace=wrap;html=1;align=center;" vertex="1" parent="1">
          <mxGeometry x="550" y="20" width="180" height="80" as="geometry" />
        </mxCell>
        <mxCell id="2vMNFDzbin6bQPBUR3g--15" value="" style="group" vertex="1" connectable="0" parent="1">
          <mxGeometry x="275" y="310" width="160" height="230" as="geometry" />
        </mxCell>
        <mxCell id="2vMNFDzbin6bQPBUR3g--4" value="" style="rounded=0;whiteSpace=wrap;html=1;" vertex="1" parent="2vMNFDzbin6bQPBUR3g--15">
          <mxGeometry width="160" height="230" as="geometry" />
        </mxCell>
        <mxCell id="2vMNFDzbin6bQPBUR3g--5" value="付费组织1" style="text;html=1;strokeColor=none;fillColor=none;align=center;verticalAlign=middle;whiteSpace=wrap;rounded=0;" vertex="1" parent="2vMNFDzbin6bQPBUR3g--15">
          <mxGeometry x="10" y="10" width="60" height="20" as="geometry" />
        </mxCell>
        <mxCell id="2vMNFDzbin6bQPBUR3g--6" value="User" style="shape=umlActor;verticalLabelPosition=bottom;verticalAlign=top;html=1;outlineConnect=0;" vertex="1" parent="2vMNFDzbin6bQPBUR3g--15">
          <mxGeometry x="20" y="41" width="20" height="30" as="geometry" />
        </mxCell>
        <mxCell id="2vMNFDzbin6bQPBUR3g--9" value="User" style="shape=umlActor;verticalLabelPosition=bottom;verticalAlign=top;html=1;outlineConnect=0;" vertex="1" parent="2vMNFDzbin6bQPBUR3g--15">
          <mxGeometry x="70" y="41" width="20" height="30" as="geometry" />
        </mxCell>
        <mxCell id="2vMNFDzbin6bQPBUR3g--10" value="User" style="shape=umlActor;verticalLabelPosition=bottom;verticalAlign=top;html=1;outlineConnect=0;" vertex="1" parent="2vMNFDzbin6bQPBUR3g--15">
          <mxGeometry x="114" y="41" width="20" height="30" as="geometry" />
        </mxCell>
        <mxCell id="2vMNFDzbin6bQPBUR3g--11" value="User" style="shape=umlActor;verticalLabelPosition=bottom;verticalAlign=top;html=1;outlineConnect=0;" vertex="1" parent="2vMNFDzbin6bQPBUR3g--15">
          <mxGeometry x="40" y="110" width="20" height="30" as="geometry" />
        </mxCell>
        <mxCell id="2vMNFDzbin6bQPBUR3g--12" value="User" style="shape=umlActor;verticalLabelPosition=bottom;verticalAlign=top;html=1;outlineConnect=0;" vertex="1" parent="2vMNFDzbin6bQPBUR3g--15">
          <mxGeometry x="90" y="110" width="20" height="30" as="geometry" />
        </mxCell>
        <mxCell id="2vMNFDzbin6bQPBUR3g--13" value="User" style="shape=umlActor;verticalLabelPosition=bottom;verticalAlign=top;html=1;outlineConnect=0;" vertex="1" parent="2vMNFDzbin6bQPBUR3g--15">
          <mxGeometry x="60" y="160" width="20" height="30" as="geometry" />
        </mxCell>
        <mxCell id="2vMNFDzbin6bQPBUR3g--48" value="" style="group" vertex="1" connectable="0" parent="1">
          <mxGeometry x="220" y="630" width="270" height="340" as="geometry" />
        </mxCell>
        <mxCell id="2vMNFDzbin6bQPBUR3g--35" value="付费组织1专有满惠云系统" style="ellipse;shape=cloud;whiteSpace=wrap;html=1;" vertex="1" parent="2vMNFDzbin6bQPBUR3g--48">
          <mxGeometry width="270" height="340" as="geometry" />
        </mxCell>
        <mxCell id="2vMNFDzbin6bQPBUR3g--47" value="" style="group" vertex="1" connectable="0" parent="2vMNFDzbin6bQPBUR3g--48">
          <mxGeometry x="55" y="80" width="165" height="210" as="geometry" />
        </mxCell>
        <mxCell id="2vMNFDzbin6bQPBUR3g--41" value="流程系统" style="rounded=0;whiteSpace=wrap;html=1;" vertex="1" parent="2vMNFDzbin6bQPBUR3g--47">
          <mxGeometry y="110" width="70" height="40" as="geometry" />
        </mxCell>
        <mxCell id="2vMNFDzbin6bQPBUR3g--42" value="客服系统" style="rounded=0;whiteSpace=wrap;html=1;" vertex="1" parent="2vMNFDzbin6bQPBUR3g--47">
          <mxGeometry x="95" width="70" height="40" as="geometry" />
        </mxCell>
        <mxCell id="2vMNFDzbin6bQPBUR3g--43" value="营销系统" style="rounded=0;whiteSpace=wrap;html=1;" vertex="1" parent="2vMNFDzbin6bQPBUR3g--47">
          <mxGeometry x="5" y="20" width="70" height="40" as="geometry" />
        </mxCell>
        <mxCell id="2vMNFDzbin6bQPBUR3g--44" value="地产云" style="rounded=0;whiteSpace=wrap;html=1;" vertex="1" parent="2vMNFDzbin6bQPBUR3g--47">
          <mxGeometry x="95" y="100" width="70" height="40" as="geometry" />
        </mxCell>
        <mxCell id="2vMNFDzbin6bQPBUR3g--45" value="其它系统" style="rounded=0;whiteSpace=wrap;html=1;" vertex="1" parent="2vMNFDzbin6bQPBUR3g--47">
          <mxGeometry x="55" y="170" width="70" height="40" as="geometry" />
        </mxCell>
        <mxCell id="2vMNFDzbin6bQPBUR3g--49" value="" style="endArrow=classic;html=1;exitX=0.13;exitY=0.77;exitDx=0;exitDy=0;exitPerimeter=0;entryX=0.5;entryY=0;entryDx=0;entryDy=0;" edge="1" parent="1" source="2vMNFDzbin6bQPBUR3g--3" target="2vMNFDzbin6bQPBUR3g--4">
          <mxGeometry width="50" height="50" relative="1" as="geometry">
            <mxPoint x="660" y="420" as="sourcePoint" />
            <mxPoint x="710" y="370" as="targetPoint" />
          </mxGeometry>
        </mxCell>
        <mxCell id="2vMNFDzbin6bQPBUR3g--50" value="&lt;font style=&quot;font-size: 16px&quot;&gt;根据规则将管钉用户数据同步到：为付费组织单独部署的满惠云系统&lt;/font&gt;" style="text;html=1;strokeColor=none;fillColor=none;align=center;verticalAlign=middle;whiteSpace=wrap;rounded=0;" vertex="1" parent="1">
          <mxGeometry x="220" y="150" width="250" height="70" as="geometry" />
        </mxCell>
        <mxCell id="2vMNFDzbin6bQPBUR3g--52" value="" style="curved=1;endArrow=classic;html=1;" edge="1" parent="1">
          <mxGeometry width="50" height="50" relative="1" as="geometry">
            <mxPoint x="340" y="1000" as="sourcePoint" />
            <mxPoint x="530" y="840" as="targetPoint" />
            <Array as="points">
              <mxPoint x="440" y="1000" />
              <mxPoint x="520" y="930" />
            </Array>
          </mxGeometry>
        </mxCell>
        <mxCell id="2vMNFDzbin6bQPBUR3g--55" value="" style="curved=1;endArrow=classic;html=1;" edge="1" parent="1">
          <mxGeometry width="50" height="50" relative="1" as="geometry">
            <mxPoint x="530" y="820" as="sourcePoint" />
            <mxPoint x="400" y="640" as="targetPoint" />
            <Array as="points">
              <mxPoint x="530" y="740" />
              <mxPoint x="500" y="660" />
            </Array>
          </mxGeometry>
        </mxCell>
        <mxCell id="2vMNFDzbin6bQPBUR3g--56" value="" style="curved=1;endArrow=classic;html=1;" edge="1" parent="1">
          <mxGeometry width="50" height="50" relative="1" as="geometry">
            <mxPoint x="300" y="650" as="sourcePoint" />
            <mxPoint x="290" y="1000" as="targetPoint" />
            <Array as="points">
              <mxPoint x="150" y="710" />
              <mxPoint x="190" y="980" />
            </Array>
          </mxGeometry>
        </mxCell>
        <mxCell id="2vMNFDzbin6bQPBUR3g--58" value="业务系统独自的数据流" style="text;html=1;strokeColor=none;fillColor=none;align=center;verticalAlign=middle;whiteSpace=wrap;rounded=0;" vertex="1" parent="1">
          <mxGeometry x="420" y="910" width="180" height="100" as="geometry" />
        </mxCell>
        <mxCell id="2vMNFDzbin6bQPBUR3g--59" value="业务系统独自的数据流" style="text;html=1;strokeColor=none;fillColor=none;align=center;verticalAlign=middle;whiteSpace=wrap;rounded=0;" vertex="1" parent="1">
          <mxGeometry x="440" y="660" width="180" height="100" as="geometry" />
        </mxCell>
        <mxCell id="2vMNFDzbin6bQPBUR3g--60" value="业务系统独自的数据流" style="text;html=1;strokeColor=none;fillColor=none;align=center;verticalAlign=middle;whiteSpace=wrap;rounded=0;" vertex="1" parent="1">
          <mxGeometry x="60" y="730" width="180" height="100" as="geometry" />
        </mxCell>
        <mxCell id="2vMNFDzbin6bQPBUR3g--61" value="" style="group" vertex="1" connectable="0" parent="1">
          <mxGeometry x="785" y="310" width="160" height="230" as="geometry" />
        </mxCell>
        <mxCell id="2vMNFDzbin6bQPBUR3g--62" value="" style="rounded=0;whiteSpace=wrap;html=1;" vertex="1" parent="2vMNFDzbin6bQPBUR3g--61">
          <mxGeometry width="160" height="230" as="geometry" />
        </mxCell>
        <mxCell id="2vMNFDzbin6bQPBUR3g--63" value="付费组织2" style="text;html=1;strokeColor=none;fillColor=none;align=center;verticalAlign=middle;whiteSpace=wrap;rounded=0;" vertex="1" parent="2vMNFDzbin6bQPBUR3g--61">
          <mxGeometry x="10" y="10" width="60" height="20" as="geometry" />
        </mxCell>
        <mxCell id="2vMNFDzbin6bQPBUR3g--64" value="User" style="shape=umlActor;verticalLabelPosition=bottom;verticalAlign=top;html=1;outlineConnect=0;" vertex="1" parent="2vMNFDzbin6bQPBUR3g--61">
          <mxGeometry x="20" y="41" width="20" height="30" as="geometry" />
        </mxCell>
        <mxCell id="2vMNFDzbin6bQPBUR3g--65" value="User" style="shape=umlActor;verticalLabelPosition=bottom;verticalAlign=top;html=1;outlineConnect=0;" vertex="1" parent="2vMNFDzbin6bQPBUR3g--61">
          <mxGeometry x="70" y="41" width="20" height="30" as="geometry" />
        </mxCell>
        <mxCell id="2vMNFDzbin6bQPBUR3g--66" value="User" style="shape=umlActor;verticalLabelPosition=bottom;verticalAlign=top;html=1;outlineConnect=0;" vertex="1" parent="2vMNFDzbin6bQPBUR3g--61">
          <mxGeometry x="114" y="41" width="20" height="30" as="geometry" />
        </mxCell>
        <mxCell id="2vMNFDzbin6bQPBUR3g--67" value="User" style="shape=umlActor;verticalLabelPosition=bottom;verticalAlign=top;html=1;outlineConnect=0;" vertex="1" parent="2vMNFDzbin6bQPBUR3g--61">
          <mxGeometry x="40" y="110" width="20" height="30" as="geometry" />
        </mxCell>
        <mxCell id="2vMNFDzbin6bQPBUR3g--68" value="User" style="shape=umlActor;verticalLabelPosition=bottom;verticalAlign=top;html=1;outlineConnect=0;" vertex="1" parent="2vMNFDzbin6bQPBUR3g--61">
          <mxGeometry x="90" y="110" width="20" height="30" as="geometry" />
        </mxCell>
        <mxCell id="2vMNFDzbin6bQPBUR3g--69" value="User" style="shape=umlActor;verticalLabelPosition=bottom;verticalAlign=top;html=1;outlineConnect=0;" vertex="1" parent="2vMNFDzbin6bQPBUR3g--61">
          <mxGeometry x="60" y="160" width="20" height="30" as="geometry" />
        </mxCell>
        <mxCell id="2vMNFDzbin6bQPBUR3g--71" value="" style="group" vertex="1" connectable="0" parent="1">
          <mxGeometry x="730" y="630" width="270" height="340" as="geometry" />
        </mxCell>
        <mxCell id="2vMNFDzbin6bQPBUR3g--72" value="付费组织1专有满惠云系统" style="ellipse;shape=cloud;whiteSpace=wrap;html=1;" vertex="1" parent="2vMNFDzbin6bQPBUR3g--71">
          <mxGeometry width="270" height="340" as="geometry" />
        </mxCell>
        <mxCell id="2vMNFDzbin6bQPBUR3g--73" value="" style="group" vertex="1" connectable="0" parent="2vMNFDzbin6bQPBUR3g--71">
          <mxGeometry x="55" y="80" width="165" height="210" as="geometry" />
        </mxCell>
        <mxCell id="2vMNFDzbin6bQPBUR3g--74" value="流程系统" style="rounded=0;whiteSpace=wrap;html=1;" vertex="1" parent="2vMNFDzbin6bQPBUR3g--73">
          <mxGeometry y="110" width="70" height="40" as="geometry" />
        </mxCell>
        <mxCell id="2vMNFDzbin6bQPBUR3g--75" value="客服系统" style="rounded=0;whiteSpace=wrap;html=1;" vertex="1" parent="2vMNFDzbin6bQPBUR3g--73">
          <mxGeometry x="95" width="70" height="40" as="geometry" />
        </mxCell>
        <mxCell id="2vMNFDzbin6bQPBUR3g--76" value="营销系统" style="rounded=0;whiteSpace=wrap;html=1;" vertex="1" parent="2vMNFDzbin6bQPBUR3g--73">
          <mxGeometry x="5" y="20" width="70" height="40" as="geometry" />
        </mxCell>
        <mxCell id="2vMNFDzbin6bQPBUR3g--77" value="地产云" style="rounded=0;whiteSpace=wrap;html=1;" vertex="1" parent="2vMNFDzbin6bQPBUR3g--73">
          <mxGeometry x="95" y="100" width="70" height="40" as="geometry" />
        </mxCell>
        <mxCell id="2vMNFDzbin6bQPBUR3g--78" value="其它系统" style="rounded=0;whiteSpace=wrap;html=1;" vertex="1" parent="2vMNFDzbin6bQPBUR3g--73">
          <mxGeometry x="55" y="170" width="70" height="40" as="geometry" />
        </mxCell>
        <mxCell id="2vMNFDzbin6bQPBUR3g--79" value="&lt;font style=&quot;font-size: 16px&quot;&gt;根据规则将管钉用户数据同步到：为付费组织单独部署的满惠云系统&lt;/font&gt;" style="text;html=1;strokeColor=none;fillColor=none;align=center;verticalAlign=middle;whiteSpace=wrap;rounded=0;" vertex="1" parent="1">
          <mxGeometry x="785" y="150" width="250" height="70" as="geometry" />
        </mxCell>
        <mxCell id="2vMNFDzbin6bQPBUR3g--80" value="" style="curved=1;endArrow=classic;html=1;" edge="1" parent="1">
          <mxGeometry width="50" height="50" relative="1" as="geometry">
            <mxPoint x="850" y="1000" as="sourcePoint" />
            <mxPoint x="1040" y="840" as="targetPoint" />
            <Array as="points">
              <mxPoint x="950" y="1000" />
              <mxPoint x="1030" y="930" />
            </Array>
          </mxGeometry>
        </mxCell>
        <mxCell id="2vMNFDzbin6bQPBUR3g--81" value="" style="curved=1;endArrow=classic;html=1;" edge="1" parent="1">
          <mxGeometry width="50" height="50" relative="1" as="geometry">
            <mxPoint x="1040" y="820" as="sourcePoint" />
            <mxPoint x="910" y="640" as="targetPoint" />
            <Array as="points">
              <mxPoint x="1040" y="740" />
              <mxPoint x="1010" y="660" />
            </Array>
          </mxGeometry>
        </mxCell>
        <mxCell id="2vMNFDzbin6bQPBUR3g--82" value="" style="curved=1;endArrow=classic;html=1;" edge="1" parent="1">
          <mxGeometry width="50" height="50" relative="1" as="geometry">
            <mxPoint x="830" y="640" as="sourcePoint" />
            <mxPoint x="820" y="990" as="targetPoint" />
            <Array as="points">
              <mxPoint x="680" y="700" />
              <mxPoint x="720" y="970" />
            </Array>
          </mxGeometry>
        </mxCell>
        <mxCell id="2vMNFDzbin6bQPBUR3g--83" value="业务系统独自的数据流" style="text;html=1;strokeColor=none;fillColor=none;align=center;verticalAlign=middle;whiteSpace=wrap;rounded=0;" vertex="1" parent="1">
          <mxGeometry x="930" y="910" width="180" height="100" as="geometry" />
        </mxCell>
        <mxCell id="2vMNFDzbin6bQPBUR3g--84" value="业务系统独自的数据流" style="text;html=1;strokeColor=none;fillColor=none;align=center;verticalAlign=middle;whiteSpace=wrap;rounded=0;" vertex="1" parent="1">
          <mxGeometry x="950" y="660" width="180" height="100" as="geometry" />
        </mxCell>
        <mxCell id="2vMNFDzbin6bQPBUR3g--86" value="" style="endArrow=classic;html=1;exitX=0.839;exitY=0.863;exitDx=0;exitDy=0;exitPerimeter=0;entryX=0.619;entryY=-0.009;entryDx=0;entryDy=0;entryPerimeter=0;" edge="1" parent="1" source="2vMNFDzbin6bQPBUR3g--3" target="2vMNFDzbin6bQPBUR3g--62">
          <mxGeometry width="50" height="50" relative="1" as="geometry">
            <mxPoint x="583.4000000000001" y="91.60000000000002" as="sourcePoint" />
            <mxPoint x="365" y="320" as="targetPoint" />
          </mxGeometry>
        </mxCell>
        <mxCell id="2vMNFDzbin6bQPBUR3g--87" value="" style="endArrow=none;dashed=1;html=1;exitX=-0.011;exitY=0.94;exitDx=0;exitDy=0;exitPerimeter=0;" edge="1" parent="1" source="2vMNFDzbin6bQPBUR3g--58" target="2vMNFDzbin6bQPBUR3g--89">
          <mxGeometry width="50" height="50" relative="1" as="geometry">
            <mxPoint x="660" y="1050" as="sourcePoint" />
            <mxPoint x="530" y="1270" as="targetPoint" />
          </mxGeometry>
        </mxCell>
        <mxCell id="2vMNFDzbin6bQPBUR3g--88" value="" style="endArrow=none;dashed=1;html=1;rounded=0;" edge="1" parent="1" source="2vMNFDzbin6bQPBUR3g--89">
          <mxGeometry width="50" height="50" relative="1" as="geometry">
            <mxPoint x="700" y="1270" as="sourcePoint" />
            <mxPoint x="820" y="1000" as="targetPoint" />
          </mxGeometry>
        </mxCell>
        <mxCell id="2vMNFDzbin6bQPBUR3g--89" value="满惠大数据平台" style="ellipse;shape=cloud;whiteSpace=wrap;html=1;" vertex="1" parent="1">
          <mxGeometry x="490" y="1150" width="260" height="160" as="geometry" />
        </mxCell>
        <mxCell id="2vMNFDzbin6bQPBUR3g--102" value="" style="shape=flexArrow;endArrow=classic;startArrow=classic;html=1;strokeWidth=1;entryX=0.5;entryY=1;entryDx=0;entryDy=0;" edge="1" parent="1" source="2vMNFDzbin6bQPBUR3g--35" target="2vMNFDzbin6bQPBUR3g--4">
          <mxGeometry width="50" height="50" relative="1" as="geometry">
            <mxPoint x="330" y="600" as="sourcePoint" />
            <mxPoint x="380" y="550" as="targetPoint" />
          </mxGeometry>
        </mxCell>
        <mxCell id="2vMNFDzbin6bQPBUR3g--103" value="" style="shape=flexArrow;endArrow=classic;startArrow=classic;html=1;strokeWidth=1;entryX=0.5;entryY=1;entryDx=0;entryDy=0;" edge="1" parent="1">
          <mxGeometry width="50" height="50" relative="1" as="geometry">
            <mxPoint x="880" y="630" as="sourcePoint" />
            <mxPoint x="880" y="540" as="targetPoint" />
          </mxGeometry>
        </mxCell>
        <mxCell id="2vMNFDzbin6bQPBUR3g--104" value="" style="endArrow=classic;html=1;strokeWidth=1;strokeColor=#FF0000;" edge="1" parent="1">
          <mxGeometry width="50" height="50" relative="1" as="geometry">
            <mxPoint x="480" y="620" as="sourcePoint" />
            <mxPoint x="620" y="110" as="targetPoint" />
          </mxGeometry>
        </mxCell>
        <mxCell id="2vMNFDzbin6bQPBUR3g--106" value="" style="endArrow=classic;html=1;strokeWidth=1;fontColor=#FF0000;strokeColor=#FF0000;" edge="1" parent="1">
          <mxGeometry width="50" height="50" relative="1" as="geometry">
            <mxPoint x="780" y="620" as="sourcePoint" />
            <mxPoint x="660" y="110" as="targetPoint" />
          </mxGeometry>
        </mxCell>
        <mxCell id="2vMNFDzbin6bQPBUR3g--107" value="数据回显" style="text;html=1;strokeColor=none;fillColor=none;align=center;verticalAlign=middle;whiteSpace=wrap;rounded=0;dashed=1;fontColor=#FF0000;fontSize=16;" vertex="1" parent="1">
          <mxGeometry x="510" y="250" width="120" height="80" as="geometry" />
        </mxCell>
        <mxCell id="2vMNFDzbin6bQPBUR3g--108" value="数据回显" style="text;html=1;strokeColor=none;fillColor=none;align=center;verticalAlign=middle;whiteSpace=wrap;rounded=0;dashed=1;fontColor=#FF0000;fontSize=16;" vertex="1" parent="1">
          <mxGeometry x="630" y="250" width="120" height="80" as="geometry" />
        </mxCell>
      </root>
    </mxGraphModel>
  </diagram>
</mxfile>
